<?xml version="1.0" encoding="utf-8"?>
<!-- Generator: Adobe Illustrator 16.0.0, SVG Export Plug-In . SVG Version: 6.00 Build 0)  -->
<!DOCTYPE svg PUBLIC "-//W3C//DTD SVG 1.1//EN" "http://www.w3.org/Graphics/SVG/1.1/DTD/svg11.dtd">
<svg version="1.1" id="Layer_1" xmlns="http://www.w3.org/2000/svg" xmlns:xlink="http://www.w3.org/1999/xlink" x="0px" y="0px"
	 width="294.12px" height="113.291px" viewBox="0 0 294.12 113.291" enable-background="new 0 0 294.12 113.291"
	 xml:space="preserve">
<g>
	<path fill="#111111" d="M126.705,83.808c-0.968,0.927-2.377,1.39-4.229,1.39h-11.112V74.946h11.422c1.604,0,2.901,0.465,3.89,1.391
		c0.988,0.925,1.481,2.171,1.481,3.736C128.156,81.637,127.671,82.882,126.705,83.808 M111.363,58.149h11.051
		c1.399,0,2.584,0.454,3.551,1.36s1.45,2.06,1.45,3.458c0,1.605-0.505,2.893-1.513,3.859c-1.008,0.968-2.356,1.451-4.044,1.451
		h-10.495V58.149z M129.513,71.243v-0.248c1.482-0.248,2.86-1.131,4.137-2.655c1.275-1.522,1.914-3.479,1.914-5.866
		c0-3.459-1.111-6.237-3.335-8.336c-2.221-2.1-5.185-3.15-8.889-3.15h-20.373v41.375h20.434c4.445,0,7.779-1.041,10.001-3.119
		c2.224-2.08,3.334-4.868,3.334-8.368c0-2.757-0.729-4.99-2.191-6.7C133.083,72.466,131.406,71.489,129.513,71.243"/>
	<path fill="#111111" d="M161.807,75.195c0,7.08-2.551,10.62-7.655,10.62c-1.894,0-3.405-0.658-4.537-1.977
		c-1.133-1.316-1.698-3.065-1.698-5.248V61.547h-8.15v18.771c0,3.829,1.132,6.947,3.396,9.357c2.265,2.405,5.248,3.61,8.952,3.61
		c3.991,0,7.223-1.235,9.692-3.704v2.778h8.149V61.547h-8.149V75.195z"/>
	<path fill="#111111" d="M192.496,74.267l-7.346-1.604c-1.852-0.412-2.779-1.277-2.779-2.595c0-0.823,0.33-1.532,0.989-2.129
		c0.657-0.599,1.729-0.897,3.209-0.897c1.647,0,2.995,0.392,4.044,1.175c1.049,0.782,1.657,1.811,1.821,3.087l7.779-1.544
		c-0.535-2.718-2.007-4.918-4.414-6.607c-2.407-1.688-5.402-2.532-8.983-2.532c-3.827,0-6.883,0.948-9.167,2.842
		c-2.285,1.894-3.426,4.344-3.426,7.349c0,2.222,0.751,4.095,2.253,5.619c1.502,1.522,3.652,2.573,6.451,3.149l6.297,1.295
		c2.264,0.496,3.396,1.422,3.396,2.781c0,0.905-0.432,1.646-1.297,2.223c-0.864,0.576-2.037,0.865-3.519,0.865
		c-3.869,0-5.988-1.401-6.359-4.199l-8.21,1.666c0.37,3.047,1.852,5.32,4.444,6.824c2.594,1.502,5.721,2.252,9.385,2.252
		c4.115,0,7.397-0.884,9.847-2.654c2.449-1.77,3.673-4.322,3.673-7.657c0-2.142-0.688-3.983-2.067-5.526
		C197.136,75.905,195.131,74.844,192.496,74.267"/>
	<path fill="#111111" d="M224.603,83.622c-1.77,1.711-3.807,2.564-6.112,2.564c-2.511,0-4.578-0.835-6.204-2.501
		c-1.625-1.668-2.438-3.901-2.438-6.7c0-2.8,0.813-5.044,2.438-6.73c1.626-1.688,3.693-2.532,6.204-2.532
		c2.306,0,4.343,0.863,6.112,2.593c1.771,1.73,2.655,3.952,2.655,6.67C227.258,79.702,226.374,81.915,224.603,83.622
		 M227.258,64.017c-2.717-2.264-6.112-3.397-10.188-3.397c-4.033,0-7.562,1.556-10.588,4.662c-3.024,3.109-4.537,7.01-4.537,11.703
		s1.502,8.584,4.507,11.67c3.005,3.088,6.545,4.631,10.618,4.631c4.034,0,7.43-1.11,10.188-3.334v2.41h8.147V61.546h-8.147V64.017z"
		/>
	<path fill="#111111" d="M258.618,61.114c-4.57,0-8.252,2.017-11.051,6.051v-5.618h-8.149v30.814h8.149v-9.943
		c0-8.808,3.663-13.214,10.988-13.214h1.79l0.434-7.841C260.285,61.196,259.565,61.114,258.618,61.114"/>
	<path fill="#111111" d="M283.316,83.622c-1.77,1.711-3.807,2.564-6.113,2.564c-2.51,0-4.578-0.835-6.203-2.501
		c-1.627-1.668-2.438-3.901-2.438-6.7c0-2.8,0.812-5.043,2.438-6.73c1.625-1.688,3.693-2.532,6.203-2.532
		c2.307,0,4.344,0.863,6.113,2.593c1.77,1.73,2.654,3.952,2.654,6.67C285.97,79.702,285.085,81.915,283.316,83.622 M285.97,61.546
		v2.471c-2.716-2.264-6.112-3.397-10.188-3.397c-4.033,0-7.562,1.556-10.588,4.662c-3.024,3.109-4.537,7.01-4.537,11.703
		s1.503,8.584,4.507,11.67c3.005,3.088,6.544,4.631,10.618,4.631c4.034,0,7.43-1.11,10.188-3.334v2.41h8.149V61.546H285.97z"/>
	<polygon fill="#0033A1" points="51.484,10.299 61.781,10.299 61.781,0 51.484,0 41.187,0 41.187,10.299 41.187,20.598 
		51.484,20.598 	"/>
	<rect x="72.077" fill="#0033A1" width="10.297" height="10.299"/>
	<polygon fill="#0033A1" points="61.781,20.598 51.483,20.598 51.483,30.897 51.483,41.196 61.781,41.196 61.781,30.897 
		72.077,30.897 72.077,20.598 72.077,10.299 61.781,10.299 	"/>
	<polygon fill="#0033A1" points="30.89,10.299 30.89,0 20.594,0 10.297,0 10.297,10.299 20.594,10.299 	"/>
	<rect y="10.299" fill="#0033A1" width="10.296" height="10.299"/>
	<polygon fill="#0033A1" points="61.781,41.196 61.781,51.495 51.483,51.495 51.483,41.196 41.186,41.196 41.186,30.897 
		41.186,20.598 30.89,20.598 30.89,30.897 20.593,30.897 20.593,41.196 10.296,41.196 10.296,30.897 0,30.897 0,41.196 0,51.495 
		0,61.795 0,72.094 0,82.393 0,92.692 0,102.991 0,113.291 10.296,113.291 20.593,113.291 30.89,113.291 41.186,113.291 
		41.186,102.991 41.186,92.692 51.483,92.692 61.781,92.692 72.077,92.692 82.374,92.692 82.374,82.393 82.374,72.094 
		82.374,61.795 82.374,51.495 82.374,41.196 82.374,30.897 72.077,30.897 72.077,41.196 	"/>
	<rect x="10.296" y="20.598" fill="#0033A1" width="10.298" height="10.299"/>
</g>
</svg>
